<svg width="32" height="32" viewBox="0 0 32 32" fill="none" xmlns="http://www.w3.org/2000/svg">
<path d="M16 0C24.8368 0 32 7.1632 32 16C32 24.8368 24.8368 32 16 32C7.1632 32 0 24.8368 0 16C0 7.1632 7.1632 0 16 0ZM21.152 11.152L14 18.304L10.848 15.152C10.6205 14.94 10.3196 14.8246 10.0088 14.8301C9.69788 14.8356 9.40127 14.9615 9.18141 15.1814C8.96154 15.4013 8.83561 15.6979 8.83012 16.0088C8.82464 16.3196 8.94003 16.6205 9.152 16.848L13.152 20.848C13.377 21.0727 13.682 21.1989 14 21.1989C14.318 21.1989 14.623 21.0727 14.848 20.848L22.848 12.848C22.9659 12.7381 23.0605 12.6057 23.1261 12.4585C23.1916 12.3113 23.2269 12.1524 23.2297 11.9912C23.2326 11.8301 23.203 11.6701 23.1426 11.5206C23.0822 11.3712 22.9924 11.2355 22.8785 11.1215C22.7645 11.0076 22.6288 10.9178 22.4794 10.8574C22.3299 10.7971 22.1699 10.7674 22.0088 10.7703C21.8476 10.7731 21.6887 10.8084 21.5415 10.874C21.3943 10.9395 21.2619 11.0341 21.152 11.152V11.152Z" fill="#FFC907"/>
</svg>
