<svg width="222" height="70" viewBox="0 0 222 70" fill="none" xmlns="http://www.w3.org/2000/svg">
<path d="M36.512 69.96C31.264 69.96 26.432 69.096 22.016 67.368C17.6 65.64 13.76 63.24 10.496 60.168C7.232 57.032 4.704 53.384 2.912 49.224C1.12 45 0.224 40.392 0.224 35.4C0.224 30.408 1.12 25.832 2.912 21.672C4.704 17.448 7.232 13.8 10.496 10.728C13.76 7.592 17.6 5.16 22.016 3.432C26.432 1.704 31.232 0.839996 36.416 0.839996C41.664 0.839996 46.464 1.704 50.816 3.432C55.232 5.16 59.072 7.592 62.336 10.728C65.6 13.8 68.128 17.448 69.92 21.672C71.712 25.832 72.608 30.408 72.608 35.4C72.608 40.392 71.712 45 69.92 49.224C68.128 53.448 65.6 57.096 62.336 60.168C59.072 63.24 55.232 65.64 50.816 67.368C46.464 69.096 41.696 69.96 36.512 69.96ZM36.416 59.016C39.808 59.016 42.944 58.44 45.824 57.288C48.704 56.136 51.2 54.504 53.312 52.392C55.424 50.216 57.056 47.72 58.208 44.904C59.424 42.024 60.032 38.856 60.032 35.4C60.032 31.944 59.424 28.808 58.208 25.992C57.056 23.112 55.424 20.616 53.312 18.504C51.2 16.328 48.704 14.664 45.824 13.512C42.944 12.36 39.808 11.784 36.416 11.784C33.024 11.784 29.888 12.36 27.008 13.512C24.192 14.664 21.696 16.328 19.52 18.504C17.408 20.616 15.744 23.112 14.528 25.992C13.376 28.808 12.8 31.944 12.8 35.4C12.8 38.792 13.376 41.928 14.528 44.808C15.744 47.688 17.408 50.216 19.52 52.392C21.632 54.504 24.128 56.136 27.008 57.288C29.888 58.44 33.024 59.016 36.416 59.016ZM113.773 17.16C117.869 17.16 121.517 17.96 124.717 19.56C127.981 21.16 130.541 23.624 132.397 26.952C134.253 30.216 135.181 34.44 135.181 39.624V69H123.181V41.16C123.181 36.616 122.093 33.224 119.917 30.984C117.805 28.744 114.829 27.624 110.989 27.624C108.173 27.624 105.677 28.2 103.501 29.352C101.325 30.504 99.6285 32.232 98.4125 34.536C97.2605 36.776 96.6845 39.624 96.6845 43.08V69H84.6845V17.736H96.1085V31.56L94.0925 27.336C95.8845 24.072 98.4765 21.576 101.869 19.848C105.325 18.056 109.293 17.16 113.773 17.16ZM174.593 69.672C168.897 69.672 163.905 68.552 159.617 66.312C155.393 64.008 152.097 60.872 149.729 56.904C147.425 52.936 146.273 48.424 146.273 43.368C146.273 38.248 147.393 33.736 149.633 29.832C151.937 25.864 155.073 22.76 159.041 20.52C163.073 18.28 167.649 17.16 172.769 17.16C177.761 17.16 182.209 18.248 186.113 20.424C190.017 22.6 193.089 25.672 195.329 29.64C197.569 33.608 198.689 38.28 198.689 43.656C198.689 44.168 198.657 44.744 198.593 45.384C198.593 46.024 198.561 46.632 198.497 47.208H155.777V39.24H192.161L187.457 41.736C187.521 38.792 186.913 36.2 185.633 33.96C184.353 31.72 182.593 29.96 180.353 28.68C178.177 27.4 175.649 26.76 172.769 26.76C169.825 26.76 167.233 27.4 164.993 28.68C162.817 29.96 161.089 31.752 159.809 34.056C158.593 36.296 157.985 38.952 157.985 42.024V43.944C157.985 47.016 158.689 49.736 160.097 52.104C161.505 54.472 163.489 56.296 166.049 57.576C168.609 58.856 171.553 59.496 174.881 59.496C177.761 59.496 180.353 59.048 182.657 58.152C184.961 57.256 187.009 55.848 188.801 53.928L195.233 61.32C192.929 64.008 190.017 66.088 186.497 67.56C183.041 68.968 179.073 69.672 174.593 69.672Z" fill="#76ACFF"/>
<path d="M214.056 69.672C211.88 69.672 210.024 68.936 208.488 67.464C206.952 65.928 206.184 64.008 206.184 61.704C206.184 59.272 206.952 57.352 208.488 55.944C210.024 54.472 211.88 53.736 214.056 53.736C216.232 53.736 218.088 54.472 219.624 55.944C221.16 57.352 221.928 59.272 221.928 61.704C221.928 64.008 221.16 65.928 219.624 67.464C218.088 68.936 216.232 69.672 214.056 69.672Z" fill="#FFC907"/>
</svg>
